<svg width="54" height="126" viewBox="0 0 54 126" fill="none" xmlns="http://www.w3.org/2000/svg">
<path d="M24.5194 22.9964L10.4019 10.338C10.1061 10.0728 9.63857 10.1083 9.39888 10.4302C6.53975 14.2426 7.31563 19.957 11.3042 23.5333C15.2927 27.1097 21.0565 27.2613 24.5368 24.0035C24.8294 23.7291 24.8152 23.2616 24.5194 22.9964Z" fill="white"/>
<path d="M18.2988 89.2987L31.6531 75.8376C31.9329 75.5555 31.921 75.0868 31.6116 74.8312C27.9483 71.7834 22.202 72.2701 18.4291 76.0732C14.6561 79.8763 14.214 85.6251 17.2921 89.2653C17.5514 89.5714 18.019 89.5808 18.2988 89.2987Z" fill="white"/>
<path d="M15.4577 58.6616C12.6737 58.9572 9.93613 54.6697 9.34303 49.0851C8.74993 43.5005 10.5259 38.7336 13.3099 38.4379C16.0938 38.1423 18.8314 42.4298 19.4245 48.0144C20.0176 53.599 18.2416 58.3659 15.4577 58.6616Z" fill="white"/>
<path d="M50.9882 92.9476C48.7718 92.7062 47.4678 87.9846 48.0758 82.4016C48.6838 76.8186 50.9734 72.4884 53.1899 72.7297C55.4063 72.9711 56.7103 77.6927 56.1023 83.2757C55.4943 88.8587 53.2047 93.1889 50.9882 92.9476Z" fill="white"/>
<path fill-rule="evenodd" clip-rule="evenodd" d="M52.1648 45.3134C53.0922 46.6101 52.7919 48.4107 51.4941 49.335C48.5716 51.4166 44.6386 52.0346 40.9135 50.8242C37.1884 49.6139 34.3704 46.8017 33.2294 43.4008C32.7226 41.8903 33.5379 40.257 35.0503 39.7528C36.5628 39.2487 38.1997 40.0645 38.7066 41.5751C39.245 43.1799 40.6497 44.676 42.6952 45.3406C44.7414 46.0055 46.7571 45.6208 48.1356 44.639C49.4335 43.7147 51.2374 44.0166 52.1648 45.3134Z" fill="white"/>
<path fill-rule="evenodd" clip-rule="evenodd" d="M57.349 113.026C58.4763 114.154 58.4749 115.979 57.3459 117.104C54.8037 119.636 51.025 120.889 47.152 120.305C43.279 119.721 40.0386 117.408 38.3561 114.24C37.6088 112.833 38.1456 111.088 39.5551 110.343C40.9646 109.598 42.713 110.135 43.4603 111.542C44.2543 113.037 45.885 114.283 48.0117 114.604C50.1392 114.925 52.0647 114.215 53.2639 113.021C54.3928 111.896 56.2218 111.899 57.349 113.026Z" fill="white"/>
<path d="M40.3618 14.979C39.6102 13.8585 39.9093 12.341 41.0298 11.5894L52.8985 3.62881C54.019 2.87727 55.5366 3.17636 56.2881 4.29685L58.6355 7.79659C59.387 8.91708 59.0879 10.4347 57.9674 11.1862L46.0987 19.1468C44.9782 19.8984 43.4607 19.5993 42.7091 18.4788L40.3618 14.979Z" fill="white"/>
<path d="M14.8296 99.779C16.1593 99.5508 17.4223 100.444 17.6506 101.773L20.0685 115.859C20.2967 117.188 19.4038 118.451 18.0741 118.68L13.9208 119.392C12.591 119.621 11.328 118.728 11.0997 117.398L8.68189 103.313C8.45362 101.983 9.34655 100.72 10.6763 100.492L14.8296 99.779Z" fill="white"/>
</svg>
