<svg width="33" height="31" viewBox="0 0 33 31" fill="none" xmlns="http://www.w3.org/2000/svg">
<path d="M13.8625 31C13.4535 31 13.0855 30.8645 12.7584 30.5936C12.4721 30.284 12.329 29.9357 12.329 29.5487V19.0412H1.53346C1.12454 19.0412 0.756506 18.9057 0.429368 18.6348C0.143123 18.3252 0 17.9769 0 17.5899V13.1199C0 12.6941 0.143123 12.3458 0.429368 12.0749C0.715613 11.7653 1.08364 11.6105 1.53346 11.6105H12.329V1.45131C12.329 1.02559 12.4721 0.677278 12.7584 0.406368C13.0855 0.135455 13.4535 0 13.8625 0H19.1375C19.5874 0 19.9554 0.135455 20.2416 0.406368C20.5688 0.677278 20.7323 1.02559 20.7323 1.45131V11.6105H31.4052C31.855 11.6105 32.223 11.7653 32.5093 12.0749C32.8364 12.3458 33 12.6941 33 13.1199V17.5899C33 18.0156 32.8364 18.3639 32.5093 18.6348C32.223 18.9057 31.855 19.0412 31.4052 19.0412H20.7323V29.5487C20.7323 29.9744 20.5688 30.3227 20.2416 30.5936C19.9554 30.8645 19.5874 31 19.1375 31H13.8625Z" fill="#FF6633"/>
</svg>
